<svg xmlns="http://www.w3.org/2000/svg" xmlns:xlink="http://www.w3.org/1999/xlink" width="325" zoomAndPan="magnify" viewBox="0 0 243.75 84.749999" height="113" preserveAspectRatio="xMidYMid meet" version="1.0"><defs><g/><clipPath id="25bf59fcf4"><path d="M 0.59375 1 L 243.125 1 L 243.125 83.628906 L 0.59375 83.628906 Z M 0.59375 1 " clip-rule="nonzero"/></clipPath></defs><g fill="#000000" fill-opacity="1"><g transform="translate(81.770348, 47.986105)"><g><path d="M 8.234375 -5.796875 C 8.234375 -3.921875 7.847656 -2.484375 7.078125 -1.484375 C 6.316406 -0.492188 5.21875 0 3.78125 0 L 1 0 L 1 -11.359375 L 4.046875 -11.359375 C 5.367188 -11.359375 6.394531 -10.867188 7.125 -9.890625 C 7.863281 -8.921875 8.234375 -7.554688 8.234375 -5.796875 Z M 6.0625 -5.734375 C 6.0625 -8.273438 5.363281 -9.546875 3.96875 -9.546875 L 3.125 -9.546875 L 3.125 -1.84375 L 3.796875 -1.84375 C 4.566406 -1.84375 5.132812 -2.164062 5.5 -2.8125 C 5.875 -3.457031 6.0625 -4.429688 6.0625 -5.734375 Z M 6.0625 -5.734375 "/></g></g></g><g fill="#000000" fill-opacity="1"><g transform="translate(90.648088, 47.986105)"><g><path d="M 4.078125 0.15625 C 2.992188 0.15625 2.140625 -0.226562 1.515625 -1 C 0.890625 -1.769531 0.578125 -2.859375 0.578125 -4.265625 C 0.578125 -5.691406 0.859375 -6.804688 1.421875 -7.609375 C 1.984375 -8.421875 2.769531 -8.828125 3.78125 -8.828125 C 4.726562 -8.828125 5.472656 -8.484375 6.015625 -7.796875 C 6.554688 -7.109375 6.828125 -6.144531 6.828125 -4.90625 L 6.828125 -3.796875 L 2.671875 -3.796875 C 2.691406 -3.023438 2.847656 -2.453125 3.140625 -2.078125 C 3.441406 -1.703125 3.859375 -1.515625 4.390625 -1.515625 C 5.066406 -1.515625 5.753906 -1.722656 6.453125 -2.140625 L 6.453125 -0.4375 C 5.796875 -0.0390625 5.003906 0.15625 4.078125 0.15625 Z M 3.765625 -7.234375 C 3.472656 -7.234375 3.226562 -7.078125 3.03125 -6.765625 C 2.84375 -6.453125 2.734375 -5.960938 2.703125 -5.296875 L 4.796875 -5.296875 C 4.785156 -5.929688 4.691406 -6.410156 4.515625 -6.734375 C 4.335938 -7.066406 4.085938 -7.234375 3.765625 -7.234375 Z M 3.765625 -7.234375 "/></g></g></g><g fill="#000000" fill-opacity="1"><g transform="translate(97.964651, 47.986105)"><g><path d="M 2.265625 0 L 0 -8.65625 L 2.140625 -8.65625 L 3.25 -3.640625 C 3.289062 -3.410156 3.34375 -3.070312 3.40625 -2.625 C 3.476562 -2.175781 3.519531 -1.851562 3.53125 -1.65625 L 3.5625 -1.65625 C 3.570312 -1.8125 3.59375 -2.035156 3.625 -2.328125 C 3.664062 -2.617188 3.707031 -2.882812 3.75 -3.125 C 3.789062 -3.363281 4.191406 -5.207031 4.953125 -8.65625 L 7.09375 -8.65625 L 4.828125 0 Z M 2.265625 0 "/></g></g></g><g fill="#000000" fill-opacity="1"><g transform="translate(105.055969, 47.986105)"><g><path d="M 4.078125 0.15625 C 2.992188 0.15625 2.140625 -0.226562 1.515625 -1 C 0.890625 -1.769531 0.578125 -2.859375 0.578125 -4.265625 C 0.578125 -5.691406 0.859375 -6.804688 1.421875 -7.609375 C 1.984375 -8.421875 2.769531 -8.828125 3.78125 -8.828125 C 4.726562 -8.828125 5.472656 -8.484375 6.015625 -7.796875 C 6.554688 -7.109375 6.828125 -6.144531 6.828125 -4.90625 L 6.828125 -3.796875 L 2.671875 -3.796875 C 2.691406 -3.023438 2.847656 -2.453125 3.140625 -2.078125 C 3.441406 -1.703125 3.859375 -1.515625 4.390625 -1.515625 C 5.066406 -1.515625 5.753906 -1.722656 6.453125 -2.140625 L 6.453125 -0.4375 C 5.796875 -0.0390625 5.003906 0.15625 4.078125 0.15625 Z M 3.765625 -7.234375 C 3.472656 -7.234375 3.226562 -7.078125 3.03125 -6.765625 C 2.84375 -6.453125 2.734375 -5.960938 2.703125 -5.296875 L 4.796875 -5.296875 C 4.785156 -5.929688 4.691406 -6.410156 4.515625 -6.734375 C 4.335938 -7.066406 4.085938 -7.234375 3.765625 -7.234375 Z M 3.765625 -7.234375 "/></g></g></g><g fill="#000000" fill-opacity="1"><g transform="translate(112.372532, 47.986105)"><g><path d="M 2.953125 0 L 0.875 0 L 0.875 -12.09375 L 2.953125 -12.09375 Z M 2.953125 0 "/></g></g></g><g fill="#000000" fill-opacity="1"><g transform="translate(116.17062, 47.986105)"><g><path d="M 7.296875 -4.34375 C 7.296875 -2.925781 6.992188 -1.820312 6.390625 -1.03125 C 5.785156 -0.238281 4.960938 0.15625 3.921875 0.15625 C 3.253906 0.15625 2.664062 -0.0234375 2.15625 -0.390625 C 1.65625 -0.753906 1.265625 -1.273438 0.984375 -1.953125 C 0.710938 -2.640625 0.578125 -3.4375 0.578125 -4.34375 C 0.578125 -5.75 0.875 -6.847656 1.46875 -7.640625 C 2.0625 -8.429688 2.890625 -8.828125 3.953125 -8.828125 C 4.972656 -8.828125 5.785156 -8.421875 6.390625 -7.609375 C 6.992188 -6.804688 7.296875 -5.71875 7.296875 -4.34375 Z M 2.6875 -4.34375 C 2.6875 -3.445312 2.785156 -2.765625 2.984375 -2.296875 C 3.179688 -1.835938 3.5 -1.609375 3.9375 -1.609375 C 4.757812 -1.609375 5.171875 -2.519531 5.171875 -4.34375 C 5.171875 -5.25 5.070312 -5.925781 4.875 -6.375 C 4.675781 -6.820312 4.363281 -7.046875 3.9375 -7.046875 C 3.5 -7.046875 3.179688 -6.820312 2.984375 -6.375 C 2.785156 -5.925781 2.6875 -5.25 2.6875 -4.34375 Z M 2.6875 -4.34375 "/></g></g></g><g fill="#000000" fill-opacity="1"><g transform="translate(124.030877, 47.986105)"><g><path d="M 4.75 0.15625 C 4.375 0.15625 4.039062 0.0703125 3.75 -0.09375 C 3.457031 -0.257812 3.191406 -0.554688 2.953125 -0.984375 L 2.84375 -0.984375 C 2.925781 -0.285156 2.96875 0.132812 2.96875 0.28125 L 2.96875 3.828125 L 0.875 3.828125 L 0.875 -8.65625 L 2.484375 -8.65625 L 2.84375 -7.53125 L 2.9375 -7.53125 C 3.363281 -8.394531 3.984375 -8.828125 4.796875 -8.828125 C 5.585938 -8.828125 6.207031 -8.4375 6.65625 -7.65625 C 7.101562 -6.875 7.328125 -5.769531 7.328125 -4.34375 C 7.328125 -2.9375 7.09375 -1.832031 6.625 -1.03125 C 6.164062 -0.238281 5.539062 0.15625 4.75 0.15625 Z M 4.109375 -7.0625 C 3.703125 -7.0625 3.410156 -6.875 3.234375 -6.5 C 3.054688 -6.125 2.960938 -5.503906 2.953125 -4.640625 L 2.953125 -4.359375 C 2.953125 -3.410156 3.039062 -2.71875 3.21875 -2.28125 C 3.394531 -1.84375 3.695312 -1.625 4.125 -1.625 C 4.84375 -1.625 5.203125 -2.539062 5.203125 -4.375 C 5.203125 -5.28125 5.113281 -5.953125 4.9375 -6.390625 C 4.757812 -6.835938 4.484375 -7.0625 4.109375 -7.0625 Z M 4.109375 -7.0625 "/></g></g></g><g fill="#000000" fill-opacity="1"><g transform="translate(131.922201, 47.986105)"><g><path d="M 4.078125 0.15625 C 2.992188 0.15625 2.140625 -0.226562 1.515625 -1 C 0.890625 -1.769531 0.578125 -2.859375 0.578125 -4.265625 C 0.578125 -5.691406 0.859375 -6.804688 1.421875 -7.609375 C 1.984375 -8.421875 2.769531 -8.828125 3.78125 -8.828125 C 4.726562 -8.828125 5.472656 -8.484375 6.015625 -7.796875 C 6.554688 -7.109375 6.828125 -6.144531 6.828125 -4.90625 L 6.828125 -3.796875 L 2.671875 -3.796875 C 2.691406 -3.023438 2.847656 -2.453125 3.140625 -2.078125 C 3.441406 -1.703125 3.859375 -1.515625 4.390625 -1.515625 C 5.066406 -1.515625 5.753906 -1.722656 6.453125 -2.140625 L 6.453125 -0.4375 C 5.796875 -0.0390625 5.003906 0.15625 4.078125 0.15625 Z M 3.765625 -7.234375 C 3.472656 -7.234375 3.226562 -7.078125 3.03125 -6.765625 C 2.84375 -6.453125 2.734375 -5.960938 2.703125 -5.296875 L 4.796875 -5.296875 C 4.785156 -5.929688 4.691406 -6.410156 4.515625 -6.734375 C 4.335938 -7.066406 4.085938 -7.234375 3.765625 -7.234375 Z M 3.765625 -7.234375 "/></g></g></g><g fill="#000000" fill-opacity="1"><g transform="translate(139.238764, 47.986105)"><g><path d="M 4.578125 -8.828125 C 4.828125 -8.828125 5.070312 -8.785156 5.3125 -8.703125 L 5.078125 -6.703125 C 4.929688 -6.753906 4.742188 -6.78125 4.515625 -6.78125 C 4.003906 -6.78125 3.613281 -6.582031 3.34375 -6.1875 C 3.082031 -5.789062 2.953125 -5.210938 2.953125 -4.453125 L 2.953125 0 L 0.875 0 L 0.875 -8.65625 L 2.578125 -8.65625 L 2.8125 -7.3125 L 2.890625 -7.3125 C 3.109375 -7.851562 3.351562 -8.238281 3.625 -8.46875 C 3.894531 -8.707031 4.210938 -8.828125 4.578125 -8.828125 Z M 4.578125 -8.828125 "/></g></g></g><g fill="#000000" fill-opacity="1"><g transform="translate(144.59803, 47.986105)"><g><path d="M 5.53125 -2.53125 C 5.53125 -1.6875 5.28125 -1.023438 4.78125 -0.546875 C 4.289062 -0.078125 3.5625 0.15625 2.59375 0.15625 C 1.738281 0.15625 1.03125 -0.0078125 0.46875 -0.34375 L 0.46875 -2.140625 C 0.757812 -1.941406 1.09375 -1.78125 1.46875 -1.65625 C 1.851562 -1.53125 2.191406 -1.46875 2.484375 -1.46875 C 2.804688 -1.46875 3.050781 -1.546875 3.21875 -1.703125 C 3.382812 -1.859375 3.46875 -2.066406 3.46875 -2.328125 C 3.46875 -2.585938 3.378906 -2.816406 3.203125 -3.015625 C 3.023438 -3.210938 2.703125 -3.453125 2.234375 -3.734375 C 1.609375 -4.109375 1.15625 -4.503906 0.875 -4.921875 C 0.601562 -5.347656 0.46875 -5.847656 0.46875 -6.421875 C 0.46875 -7.160156 0.71875 -7.742188 1.21875 -8.171875 C 1.726562 -8.609375 2.425781 -8.828125 3.3125 -8.828125 C 4.082031 -8.828125 4.804688 -8.625 5.484375 -8.21875 L 4.796875 -6.734375 C 4.242188 -7.035156 3.757812 -7.1875 3.34375 -7.1875 C 3.082031 -7.1875 2.882812 -7.113281 2.75 -6.96875 C 2.613281 -6.832031 2.546875 -6.660156 2.546875 -6.453125 C 2.546875 -6.222656 2.628906 -6.015625 2.796875 -5.828125 C 2.960938 -5.648438 3.265625 -5.425781 3.703125 -5.15625 C 4.242188 -4.832031 4.625 -4.554688 4.84375 -4.328125 C 5.0625 -4.097656 5.226562 -3.835938 5.34375 -3.546875 C 5.46875 -3.265625 5.53125 -2.925781 5.53125 -2.53125 Z M 5.53125 -2.53125 "/></g></g></g><g clip-path="url(#25bf59fcf4)"><path fill="#1d4860" d="M 0.59375 16.671875 L 8.679688 18.230469 C 16.761719 19.816406 32.929688 22.9375 49.101562 20.894531 C 65.269531 18.824219 81.4375 11.5625 97.605469 6.992188 C 113.773438 2.421875 129.945312 0.539062 146.113281 1.882812 C 162.28125 3.226562 178.449219 7.796875 194.617188 13.984375 C 210.785156 20.167969 226.957031 27.964844 235.039062 31.863281 L 243.125 35.765625 L 243.125 83.628906 L 235.039062 83.628906 C 226.957031 83.628906 210.785156 83.628906 194.617188 83.628906 C 178.449219 83.628906 162.28125 83.628906 146.113281 83.628906 C 129.945312 83.628906 113.773438 83.628906 97.605469 83.628906 C 81.4375 83.628906 65.269531 83.628906 49.101562 83.628906 C 32.929688 83.628906 16.761719 83.628906 8.679688 83.628906 L 0.59375 83.628906 Z M 0.59375 16.671875 " fill-opacity="1" fill-rule="nonzero"/></g></svg>