<svg xmlns="http://www.w3.org/2000/svg" xmlns:xlink="http://www.w3.org/1999/xlink" width="412" zoomAndPan="magnify" viewBox="0 0 309 259.499997" height="346" preserveAspectRatio="xMidYMid meet" version="1.0"><defs><g/><clipPath id="ff74c50301"><path d="M 38.261719 37.761719 L 271.0625 37.761719 L 271.0625 221.15625 L 38.261719 221.15625 Z M 38.261719 37.761719 " clip-rule="nonzero"/></clipPath></defs><g fill="#cdcdcd" fill-opacity="1"><g transform="translate(88.354493, 120.610072)"><g><path d="M 4.515625 -4.9375 C 4.515625 -4.175781 4.320312 -3.59375 3.9375 -3.1875 C 3.5625 -2.78125 3.007812 -2.578125 2.28125 -2.578125 L 1.953125 -2.578125 L 1.953125 0 L 0.625 0 L 0.625 -7.125 L 2.4375 -7.125 C 3.820312 -7.125 4.515625 -6.394531 4.515625 -4.9375 Z M 1.953125 -3.734375 L 2.203125 -3.734375 C 2.535156 -3.734375 2.78125 -3.820312 2.9375 -4 C 3.09375 -4.175781 3.171875 -4.46875 3.171875 -4.875 C 3.171875 -5.25 3.097656 -5.523438 2.953125 -5.703125 C 2.804688 -5.890625 2.582031 -5.984375 2.28125 -5.984375 L 1.953125 -5.984375 Z M 1.953125 -3.734375 "/></g></g></g><g fill="#cdcdcd" fill-opacity="1"><g transform="translate(93.133458, 120.610072)"><g><path d="M 3.25 0 L 3.25 -3.234375 C 3.25 -4.035156 3.050781 -4.4375 2.65625 -4.4375 C 2.351562 -4.4375 2.140625 -4.273438 2.015625 -3.953125 C 1.898438 -3.640625 1.84375 -3.191406 1.84375 -2.609375 L 1.84375 0 L 0.546875 0 L 0.546875 -7.578125 L 1.84375 -7.578125 L 1.84375 -5.90625 C 1.84375 -5.6875 1.828125 -5.296875 1.796875 -4.734375 L 1.859375 -4.734375 C 2.117188 -5.265625 2.519531 -5.53125 3.0625 -5.53125 C 3.550781 -5.53125 3.921875 -5.363281 4.171875 -5.03125 C 4.429688 -4.695312 4.5625 -4.203125 4.5625 -3.546875 L 4.5625 0 Z M 3.25 0 "/></g></g></g><g fill="#cdcdcd" fill-opacity="1"><g transform="translate(98.190095, 120.610072)"><g><path d="M 4.578125 -2.71875 C 4.578125 -1.832031 4.382812 -1.140625 4 -0.640625 C 3.625 -0.148438 3.109375 0.09375 2.453125 0.09375 C 2.035156 0.09375 1.664062 -0.015625 1.34375 -0.234375 C 1.03125 -0.460938 0.785156 -0.789062 0.609375 -1.21875 C 0.441406 -1.65625 0.359375 -2.15625 0.359375 -2.71875 C 0.359375 -3.601562 0.546875 -4.289062 0.921875 -4.78125 C 1.296875 -5.28125 1.816406 -5.53125 2.484375 -5.53125 C 3.117188 -5.53125 3.625 -5.273438 4 -4.765625 C 4.382812 -4.265625 4.578125 -3.582031 4.578125 -2.71875 Z M 1.6875 -2.71875 C 1.6875 -2.15625 1.75 -1.726562 1.875 -1.4375 C 2 -1.15625 2.195312 -1.015625 2.46875 -1.015625 C 2.988281 -1.015625 3.25 -1.582031 3.25 -2.71875 C 3.25 -3.289062 3.1875 -3.71875 3.0625 -4 C 2.9375 -4.28125 2.738281 -4.421875 2.46875 -4.421875 C 2.195312 -4.421875 2 -4.28125 1.875 -4 C 1.75 -3.71875 1.6875 -3.289062 1.6875 -2.71875 Z M 1.6875 -2.71875 "/></g></g></g><g fill="#cdcdcd" fill-opacity="1"><g transform="translate(103.120071, 120.610072)"><g><path d="M 3.25 0 L 3.25 -3.234375 C 3.25 -3.628906 3.203125 -3.925781 3.109375 -4.125 C 3.015625 -4.332031 2.863281 -4.4375 2.65625 -4.4375 C 2.375 -4.4375 2.164062 -4.296875 2.03125 -4.015625 C 1.90625 -3.734375 1.84375 -3.265625 1.84375 -2.609375 L 1.84375 0 L 0.546875 0 L 0.546875 -5.4375 L 1.578125 -5.4375 L 1.734375 -4.734375 L 1.8125 -4.734375 C 1.9375 -4.984375 2.101562 -5.175781 2.3125 -5.3125 C 2.53125 -5.457031 2.789062 -5.53125 3.09375 -5.53125 C 3.582031 -5.53125 3.945312 -5.359375 4.1875 -5.015625 C 4.4375 -4.679688 4.5625 -4.191406 4.5625 -3.546875 L 4.5625 0 Z M 3.25 0 "/></g></g></g><g fill="#cdcdcd" fill-opacity="1"><g transform="translate(108.176708, 120.610072)"><g><path d="M 2.546875 0.09375 C 1.867188 0.09375 1.332031 -0.144531 0.9375 -0.625 C 0.550781 -1.101562 0.359375 -1.785156 0.359375 -2.671875 C 0.359375 -3.566406 0.535156 -4.265625 0.890625 -4.765625 C 1.242188 -5.273438 1.738281 -5.53125 2.375 -5.53125 C 2.96875 -5.53125 3.429688 -5.3125 3.765625 -4.875 C 4.109375 -4.445312 4.28125 -3.847656 4.28125 -3.078125 L 4.28125 -2.390625 L 1.671875 -2.390625 C 1.679688 -1.898438 1.78125 -1.535156 1.96875 -1.296875 C 2.15625 -1.066406 2.414062 -0.953125 2.75 -0.953125 C 3.175781 -0.953125 3.609375 -1.082031 4.046875 -1.34375 L 4.046875 -0.28125 C 3.628906 -0.03125 3.128906 0.09375 2.546875 0.09375 Z M 2.359375 -4.53125 C 2.179688 -4.53125 2.03125 -4.429688 1.90625 -4.234375 C 1.78125 -4.035156 1.710938 -3.734375 1.703125 -3.328125 L 3.015625 -3.328125 C 3.003906 -3.722656 2.941406 -4.019531 2.828125 -4.21875 C 2.710938 -4.425781 2.554688 -4.53125 2.359375 -4.53125 Z M 2.359375 -4.53125 "/></g></g></g><g fill="#cdcdcd" fill-opacity="1"><g transform="translate(112.765678, 120.610072)"><g><path d="M 0.546875 -0.671875 C 0.546875 -0.921875 0.613281 -1.113281 0.75 -1.25 C 0.882812 -1.394531 1.082031 -1.46875 1.34375 -1.46875 C 1.613281 -1.46875 1.816406 -1.394531 1.953125 -1.25 C 2.085938 -1.113281 2.15625 -0.921875 2.15625 -0.671875 C 2.15625 -0.410156 2.082031 -0.210938 1.9375 -0.078125 C 1.800781 0.0546875 1.601562 0.125 1.34375 0.125 C 1.082031 0.125 0.882812 0.0546875 0.75 -0.078125 C 0.613281 -0.222656 0.546875 -0.421875 0.546875 -0.671875 Z M 0.546875 -4.75 C 0.546875 -5 0.613281 -5.191406 0.75 -5.328125 C 0.882812 -5.472656 1.082031 -5.546875 1.34375 -5.546875 C 1.613281 -5.546875 1.816406 -5.472656 1.953125 -5.328125 C 2.085938 -5.191406 2.15625 -5 2.15625 -4.75 C 2.15625 -4.488281 2.082031 -4.285156 1.9375 -4.140625 C 1.800781 -4.003906 1.601562 -3.9375 1.34375 -3.9375 C 1.082031 -3.9375 0.882812 -4.007812 0.75 -4.15625 C 0.613281 -4.300781 0.546875 -4.5 0.546875 -4.75 Z M 0.546875 -4.75 "/></g></g></g><g fill="#cdcdcd" fill-opacity="1"><g transform="translate(115.459634, 120.610072)"><g/></g></g><g fill="#cdcdcd" fill-opacity="1"><g transform="translate(117.924622, 120.610072)"><g><path d="M 4.265625 -3.5625 C 4.265625 -2.269531 4.109375 -1.335938 3.796875 -0.765625 C 3.484375 -0.191406 2.984375 0.09375 2.296875 0.09375 C 1.609375 0.09375 1.113281 -0.191406 0.8125 -0.765625 C 0.507812 -1.347656 0.359375 -2.28125 0.359375 -3.5625 C 0.359375 -4.851562 0.515625 -5.785156 0.828125 -6.359375 C 1.148438 -6.941406 1.644531 -7.234375 2.3125 -7.234375 C 3 -7.234375 3.492188 -6.945312 3.796875 -6.375 C 4.109375 -5.8125 4.265625 -4.875 4.265625 -3.5625 Z M 1.6875 -3.5625 C 1.6875 -2.5625 1.726562 -1.890625 1.8125 -1.546875 C 1.894531 -1.203125 2.0625 -1.03125 2.3125 -1.03125 C 2.46875 -1.03125 2.585938 -1.101562 2.671875 -1.25 C 2.765625 -1.40625 2.832031 -1.65625 2.875 -2 C 2.914062 -2.34375 2.9375 -2.863281 2.9375 -3.5625 C 2.9375 -4.539062 2.890625 -5.207031 2.796875 -5.5625 C 2.703125 -5.925781 2.539062 -6.109375 2.3125 -6.109375 C 2.0625 -6.109375 1.894531 -5.929688 1.8125 -5.578125 C 1.726562 -5.222656 1.6875 -4.550781 1.6875 -3.5625 Z M 1.6875 -3.5625 "/></g></g></g><g fill="#cdcdcd" fill-opacity="1"><g transform="translate(122.542822, 120.610072)"><g><path d="M 3.546875 0 L 2.25 0 L 2.25 -4.1875 C 2.25 -4.632812 2.269531 -5.15625 2.3125 -5.75 C 2.289062 -5.71875 2.207031 -5.617188 2.0625 -5.453125 C 1.914062 -5.285156 1.632812 -4.988281 1.21875 -4.5625 L 0.484375 -5.375 L 2.375 -7.125 L 3.546875 -7.125 Z M 3.546875 0 "/></g></g></g><g fill="#cdcdcd" fill-opacity="1"><g transform="translate(127.161021, 120.610072)"><g><path d="M 4.234375 -4.015625 C 4.234375 -1.273438 3.316406 0.09375 1.484375 0.09375 C 1.171875 0.09375 0.914062 0.0664062 0.71875 0.015625 L 0.71875 -1.09375 C 0.9375 -1.019531 1.140625 -0.984375 1.328125 -0.984375 C 1.878906 -0.984375 2.296875 -1.171875 2.578125 -1.546875 C 2.859375 -1.929688 3.007812 -2.523438 3.03125 -3.328125 L 3 -3.328125 C 2.894531 -3.078125 2.742188 -2.878906 2.546875 -2.734375 C 2.347656 -2.585938 2.117188 -2.515625 1.859375 -2.515625 C 1.367188 -2.515625 0.988281 -2.710938 0.71875 -3.109375 C 0.457031 -3.503906 0.328125 -4.050781 0.328125 -4.75 C 0.328125 -5.507812 0.5 -6.109375 0.84375 -6.546875 C 1.195312 -6.992188 1.664062 -7.21875 2.25 -7.21875 C 2.894531 -7.21875 3.382812 -6.941406 3.71875 -6.390625 C 4.0625 -5.847656 4.234375 -5.054688 4.234375 -4.015625 Z M 2.265625 -6.09375 C 2.066406 -6.09375 1.910156 -5.984375 1.796875 -5.765625 C 1.679688 -5.554688 1.625 -5.222656 1.625 -4.765625 C 1.625 -4.398438 1.675781 -4.109375 1.78125 -3.890625 C 1.882812 -3.679688 2.035156 -3.578125 2.234375 -3.578125 C 2.421875 -3.578125 2.582031 -3.679688 2.71875 -3.890625 C 2.851562 -4.109375 2.921875 -4.351562 2.921875 -4.625 C 2.921875 -5.050781 2.859375 -5.398438 2.734375 -5.671875 C 2.617188 -5.953125 2.460938 -6.09375 2.265625 -6.09375 Z M 2.265625 -6.09375 "/></g></g></g><g fill="#cdcdcd" fill-opacity="1"><g transform="translate(131.779221, 120.610072)"><g><path d="M 4.46875 -1.5 L 3.75 -1.5 L 3.75 0 L 2.5 0 L 2.5 -1.5 L 0.1875 -1.5 L 0.1875 -2.578125 L 2.328125 -7.125 L 3.75 -7.125 L 3.75 -2.59375 L 4.46875 -2.59375 Z M 2.5 -2.59375 L 2.5 -4.09375 L 2.53125 -4.765625 L 2.5625 -5.390625 L 2.53125 -5.390625 C 2.414062 -5.035156 2.289062 -4.71875 2.15625 -4.4375 L 1.296875 -2.59375 Z M 2.5 -2.59375 "/></g></g></g><g fill="#cdcdcd" fill-opacity="1"><g transform="translate(136.39742, 120.610072)"><g><path d="M 4.1875 0 L 0.359375 0 L 0.359375 -0.984375 L 1.625 -2.78125 C 1.976562 -3.28125 2.21875 -3.644531 2.34375 -3.875 C 2.476562 -4.113281 2.570312 -4.34375 2.625 -4.5625 C 2.6875 -4.789062 2.71875 -5.019531 2.71875 -5.25 C 2.71875 -5.519531 2.65625 -5.722656 2.53125 -5.859375 C 2.414062 -5.992188 2.257812 -6.0625 2.0625 -6.0625 C 1.894531 -6.0625 1.734375 -6.015625 1.578125 -5.921875 C 1.429688 -5.835938 1.25 -5.675781 1.03125 -5.4375 L 0.296875 -6.21875 C 0.640625 -6.601562 0.957031 -6.867188 1.25 -7.015625 C 1.539062 -7.160156 1.859375 -7.234375 2.203125 -7.234375 C 2.773438 -7.234375 3.222656 -7.0625 3.546875 -6.71875 C 3.867188 -6.382812 4.03125 -5.914062 4.03125 -5.3125 C 4.03125 -5.039062 4 -4.78125 3.9375 -4.53125 C 3.882812 -4.289062 3.796875 -4.046875 3.671875 -3.796875 C 3.554688 -3.554688 3.410156 -3.300781 3.234375 -3.03125 C 3.054688 -2.769531 2.59375 -2.164062 1.84375 -1.21875 L 1.84375 -1.1875 L 4.1875 -1.1875 Z M 4.1875 0 "/></g></g></g><g fill="#cdcdcd" fill-opacity="1"><g transform="translate(141.01562, 120.610072)"><g><path d="M 0.875 0 L 2.875 -5.9375 L 0.390625 -5.9375 L 0.390625 -7.125 L 4.21875 -7.125 L 4.21875 -6.21875 L 2.25 0 Z M 0.875 0 "/></g></g></g><g fill="#cdcdcd" fill-opacity="1"><g transform="translate(145.633819, 120.610072)"><g><path d="M 4.1875 0 L 0.359375 0 L 0.359375 -0.984375 L 1.625 -2.78125 C 1.976562 -3.28125 2.21875 -3.644531 2.34375 -3.875 C 2.476562 -4.113281 2.570312 -4.34375 2.625 -4.5625 C 2.6875 -4.789062 2.71875 -5.019531 2.71875 -5.25 C 2.71875 -5.519531 2.65625 -5.722656 2.53125 -5.859375 C 2.414062 -5.992188 2.257812 -6.0625 2.0625 -6.0625 C 1.894531 -6.0625 1.734375 -6.015625 1.578125 -5.921875 C 1.429688 -5.835938 1.25 -5.675781 1.03125 -5.4375 L 0.296875 -6.21875 C 0.640625 -6.601562 0.957031 -6.867188 1.25 -7.015625 C 1.539062 -7.160156 1.859375 -7.234375 2.203125 -7.234375 C 2.773438 -7.234375 3.222656 -7.0625 3.546875 -6.71875 C 3.867188 -6.382812 4.03125 -5.914062 4.03125 -5.3125 C 4.03125 -5.039062 4 -4.78125 3.9375 -4.53125 C 3.882812 -4.289062 3.796875 -4.046875 3.671875 -3.796875 C 3.554688 -3.554688 3.410156 -3.300781 3.234375 -3.03125 C 3.054688 -2.769531 2.59375 -2.164062 1.84375 -1.21875 L 1.84375 -1.1875 L 4.1875 -1.1875 Z M 4.1875 0 "/></g></g></g><g fill="#cdcdcd" fill-opacity="1"><g transform="translate(150.252019, 120.610072)"><g><path d="M 0.875 0 L 2.875 -5.9375 L 0.390625 -5.9375 L 0.390625 -7.125 L 4.21875 -7.125 L 4.21875 -6.21875 L 2.25 0 Z M 0.875 0 "/></g></g></g><g fill="#cdcdcd" fill-opacity="1"><g transform="translate(154.870219, 120.610072)"><g><path d="M 4.234375 -4.015625 C 4.234375 -1.273438 3.316406 0.09375 1.484375 0.09375 C 1.171875 0.09375 0.914062 0.0664062 0.71875 0.015625 L 0.71875 -1.09375 C 0.9375 -1.019531 1.140625 -0.984375 1.328125 -0.984375 C 1.878906 -0.984375 2.296875 -1.171875 2.578125 -1.546875 C 2.859375 -1.929688 3.007812 -2.523438 3.03125 -3.328125 L 3 -3.328125 C 2.894531 -3.078125 2.742188 -2.878906 2.546875 -2.734375 C 2.347656 -2.585938 2.117188 -2.515625 1.859375 -2.515625 C 1.367188 -2.515625 0.988281 -2.710938 0.71875 -3.109375 C 0.457031 -3.503906 0.328125 -4.050781 0.328125 -4.75 C 0.328125 -5.507812 0.5 -6.109375 0.84375 -6.546875 C 1.195312 -6.992188 1.664062 -7.21875 2.25 -7.21875 C 2.894531 -7.21875 3.382812 -6.941406 3.71875 -6.390625 C 4.0625 -5.847656 4.234375 -5.054688 4.234375 -4.015625 Z M 2.265625 -6.09375 C 2.066406 -6.09375 1.910156 -5.984375 1.796875 -5.765625 C 1.679688 -5.554688 1.625 -5.222656 1.625 -4.765625 C 1.625 -4.398438 1.675781 -4.109375 1.78125 -3.890625 C 1.882812 -3.679688 2.035156 -3.578125 2.234375 -3.578125 C 2.421875 -3.578125 2.582031 -3.679688 2.71875 -3.890625 C 2.851562 -4.109375 2.921875 -4.351562 2.921875 -4.625 C 2.921875 -5.050781 2.859375 -5.398438 2.734375 -5.671875 C 2.617188 -5.953125 2.460938 -6.09375 2.265625 -6.09375 Z M 2.265625 -6.09375 "/></g></g></g><g fill="#cdcdcd" fill-opacity="1"><g transform="translate(159.488418, 120.610072)"><g><path d="M 0.875 0 L 2.875 -5.9375 L 0.390625 -5.9375 L 0.390625 -7.125 L 4.21875 -7.125 L 4.21875 -6.21875 L 2.25 0 Z M 0.875 0 "/></g></g></g><g fill="#cdcdcd" fill-opacity="1"><g transform="translate(164.106618, 120.610072)"><g><path d="M 2.3125 -7.21875 C 2.875 -7.21875 3.316406 -7.0625 3.640625 -6.75 C 3.972656 -6.4375 4.140625 -6.003906 4.140625 -5.453125 C 4.140625 -5.117188 4.0625 -4.816406 3.90625 -4.546875 C 3.757812 -4.273438 3.5 -4.015625 3.125 -3.765625 C 3.539062 -3.472656 3.835938 -3.171875 4.015625 -2.859375 C 4.191406 -2.554688 4.28125 -2.21875 4.28125 -1.84375 C 4.28125 -1.257812 4.097656 -0.789062 3.734375 -0.4375 C 3.378906 -0.0820312 2.90625 0.09375 2.3125 0.09375 C 1.695312 0.09375 1.210938 -0.0664062 0.859375 -0.390625 C 0.515625 -0.722656 0.34375 -1.195312 0.34375 -1.8125 C 0.34375 -2.21875 0.429688 -2.578125 0.609375 -2.890625 C 0.785156 -3.203125 1.054688 -3.476562 1.421875 -3.71875 C 1.078125 -3.988281 0.832031 -4.257812 0.6875 -4.53125 C 0.550781 -4.800781 0.484375 -5.109375 0.484375 -5.453125 C 0.484375 -5.992188 0.648438 -6.421875 0.984375 -6.734375 C 1.328125 -7.054688 1.769531 -7.21875 2.3125 -7.21875 Z M 1.609375 -1.875 C 1.609375 -1.59375 1.664062 -1.363281 1.78125 -1.1875 C 1.90625 -1.019531 2.078125 -0.9375 2.296875 -0.9375 C 2.535156 -0.9375 2.710938 -1.019531 2.828125 -1.1875 C 2.953125 -1.363281 3.015625 -1.59375 3.015625 -1.875 C 3.015625 -2.082031 2.96875 -2.273438 2.875 -2.453125 C 2.78125 -2.640625 2.597656 -2.851562 2.328125 -3.09375 L 2.25 -3.15625 C 2.039062 -3 1.878906 -2.820312 1.765625 -2.625 C 1.660156 -2.425781 1.609375 -2.175781 1.609375 -1.875 Z M 2.3125 -6.1875 C 2.125 -6.1875 1.984375 -6.117188 1.890625 -5.984375 C 1.796875 -5.847656 1.75 -5.65625 1.75 -5.40625 C 1.75 -5.195312 1.785156 -5.007812 1.859375 -4.84375 C 1.941406 -4.6875 2.09375 -4.519531 2.3125 -4.34375 C 2.53125 -4.507812 2.675781 -4.675781 2.75 -4.84375 C 2.832031 -5.007812 2.875 -5.195312 2.875 -5.40625 C 2.875 -5.925781 2.6875 -6.1875 2.3125 -6.1875 Z M 2.3125 -6.1875 "/></g></g></g><g clip-path="url(#ff74c50301)"><path fill="#1d4860" d="M 38.261719 221.140625 C 114.402344 221.140625 90.324219 163.894531 150.242188 163.894531 C 210.164062 163.894531 230.601562 101.648438 271.0625 101.648438 L 271.0625 37.765625 L 38.261719 37.765625 Z M 38.261719 221.140625 " fill-opacity="1" fill-rule="nonzero"/></g></svg>