<svg xmlns="http://www.w3.org/2000/svg" xmlns:xlink="http://www.w3.org/1999/xlink" width="151" zoomAndPan="magnify" viewBox="0 0 113.25 112.499997" height="150" preserveAspectRatio="xMidYMid meet" version="1.0"><defs><clipPath id="4a16628240"><path d="M 50.25 53.542969 L 55.464844 53.542969 L 55.464844 55.03125 L 50.25 55.03125 Z M 50.25 53.542969 " clip-rule="nonzero"/></clipPath><clipPath id="8084f768af"><path d="M 37.828125 40 L 67 40 L 67 70 L 37.828125 70 Z M 37.828125 40 " clip-rule="nonzero"/></clipPath><clipPath id="1449e15b82"><path d="M 58.820312 58.183594 L 75.058594 58.183594 L 75.058594 74.324219 L 58.820312 74.324219 Z M 58.820312 58.183594 " clip-rule="nonzero"/></clipPath><clipPath id="5b442cbb6c"><path d="M 58 37.816406 L 71 37.816406 L 71 50 L 58 50 Z M 58 37.816406 " clip-rule="nonzero"/></clipPath></defs><g clip-path="url(#4a16628240)"><path fill="#535353" d="M 55.296875 55.03125 L 50.417969 55.03125 C 50.332031 55.03125 50.257812 54.949219 50.257812 54.851562 L 50.257812 53.722656 C 50.257812 53.621094 50.332031 53.542969 50.417969 53.542969 L 55.296875 53.542969 C 55.382812 53.542969 55.457031 53.621094 55.457031 53.722656 L 55.457031 54.851562 C 55.457031 54.949219 55.382812 55.03125 55.296875 55.03125 Z M 55.296875 55.03125 " fill-opacity="1" fill-rule="nonzero"/></g><g clip-path="url(#8084f768af)"><path fill="#163343" d="M 66.933594 54.8125 C 53.320312 55.324219 52.90625 55.738281 52.390625 69.300781 C 51.878906 55.738281 51.464844 55.324219 37.851562 54.8125 C 51.464844 54.304688 51.878906 53.890625 52.390625 40.328125 C 52.90625 53.890625 53.320312 54.304688 66.933594 54.8125 " fill-opacity="1" fill-rule="nonzero"/></g><g clip-path="url(#1449e15b82)"><path fill="#163343" d="M 75.058594 66.253906 C 67.476562 66.539062 67.242188 66.769531 66.957031 74.324219 C 66.671875 66.769531 66.441406 66.539062 58.855469 66.253906 C 66.441406 65.96875 66.671875 65.738281 66.957031 58.183594 C 67.242188 65.738281 67.476562 65.96875 75.058594 66.253906 " fill-opacity="1" fill-rule="nonzero"/></g><g clip-path="url(#5b442cbb6c)"><path fill="#163343" d="M 70.296875 43.511719 C 64.941406 43.714844 64.777344 43.875 64.578125 49.210938 C 64.375 43.875 64.210938 43.714844 58.855469 43.511719 C 64.210938 43.3125 64.375 43.148438 64.578125 37.816406 C 64.777344 43.148438 64.941406 43.3125 70.296875 43.511719 " fill-opacity="1" fill-rule="nonzero"/></g></svg>