<svg xmlns="http://www.w3.org/2000/svg" xmlns:xlink="http://www.w3.org/1999/xlink" width="390" zoomAndPan="magnify" viewBox="0 0 292.5 210.749994" height="281" preserveAspectRatio="xMidYMid meet" version="1.0"><defs><g/><clipPath id="d97c6e524c"><path d="M 45 60 L 254 60 L 254 172.425781 L 45 172.425781 Z M 45 60 " clip-rule="nonzero"/></clipPath><clipPath id="1b6eea3cd7"><path d="M 68 80 L 254 80 L 254 172.425781 L 68 172.425781 Z M 68 80 " clip-rule="nonzero"/></clipPath><clipPath id="092c99395d"><path d="M 83 54 L 212 54 L 212 172.425781 L 83 172.425781 Z M 83 54 " clip-rule="nonzero"/></clipPath><clipPath id="e0e108ada1"><path d="M 66 38.175781 L 232 38.175781 L 232 172.425781 L 66 172.425781 Z M 66 38.175781 " clip-rule="nonzero"/></clipPath></defs><g fill="#3b3b3b" fill-opacity="1"><g transform="translate(138.561369, 109.563039)"><g><path d="M 4.167969 -3.359375 L 3.519531 -1.128906 L 2.617188 -3.320312 L 2.371094 -3.320312 L 1.488281 -1.125 L 0.824219 -3.359375 L 0.0585938 -3.359375 L 1.113281 0 L 1.761719 0 L 2.492188 -1.882812 L 3.242188 0 L 3.886719 0 L 4.925781 -3.359375 Z M 4.167969 -3.359375 "/></g></g></g><g fill="#3b3b3b" fill-opacity="1"><g transform="translate(143.558768, 109.563039)"><g><path d="M 2.851562 -1.300781 C 2.851562 -2.050781 2.304688 -2.664062 1.507812 -2.664062 C 0.738281 -2.664062 0.164062 -2.074219 0.164062 -1.296875 C 0.164062 -0.519531 0.742188 0.078125 1.507812 0.078125 C 2.113281 0.078125 2.605469 -0.285156 2.792969 -0.851562 L 2.058594 -0.851562 C 1.953125 -0.664062 1.753906 -0.546875 1.507812 -0.546875 C 1.167969 -0.546875 0.9375 -0.742188 0.875 -1.097656 L 2.835938 -1.097656 C 2.847656 -1.167969 2.851562 -1.234375 2.851562 -1.300781 Z M 1.507812 -2.0625 C 1.824219 -2.0625 2.050781 -1.890625 2.152344 -1.574219 L 0.894531 -1.574219 C 0.972656 -1.882812 1.195312 -2.0625 1.507812 -2.0625 Z M 1.507812 -2.0625 "/></g></g></g><g fill="#3b3b3b" fill-opacity="1"><g transform="translate(146.57353, 109.563039)"><g><path d="M 0.335938 0 L 1.035156 0 L 1.035156 -3.523438 L 0.335938 -3.523438 Z M 0.335938 0 "/></g></g></g><g fill="#3b3b3b" fill-opacity="1"><g transform="translate(147.946495, 109.563039)"><g><path d="M 1.539062 0.078125 C 2.21875 0.078125 2.75 -0.363281 2.871094 -1.019531 L 2.164062 -1.019531 C 2.046875 -0.738281 1.824219 -0.585938 1.539062 -0.585938 C 1.167969 -0.585938 0.875 -0.898438 0.875 -1.296875 C 0.875 -1.699219 1.160156 -2.007812 1.539062 -2.007812 C 1.820312 -2.007812 2.054688 -1.851562 2.164062 -1.597656 L 2.859375 -1.597656 C 2.734375 -2.238281 2.21875 -2.664062 1.546875 -2.664062 C 0.757812 -2.664062 0.164062 -2.078125 0.164062 -1.300781 C 0.164062 -0.523438 0.757812 0.078125 1.539062 0.078125 Z M 1.539062 0.078125 "/></g></g></g><g fill="#3b3b3b" fill-opacity="1"><g transform="translate(150.946855, 109.563039)"><g><path d="M 1.566406 0.078125 C 2.367188 0.078125 2.964844 -0.511719 2.964844 -1.296875 C 2.964844 -2.078125 2.367188 -2.664062 1.566406 -2.664062 C 0.761719 -2.664062 0.164062 -2.078125 0.164062 -1.296875 C 0.164062 -0.511719 0.761719 0.078125 1.566406 0.078125 Z M 1.566406 -0.585938 C 1.160156 -0.585938 0.875 -0.875 0.875 -1.296875 C 0.875 -1.714844 1.160156 -2.007812 1.566406 -2.007812 C 1.96875 -2.007812 2.257812 -1.714844 2.257812 -1.296875 C 2.257812 -0.875 1.96875 -0.585938 1.566406 -0.585938 Z M 1.566406 -0.585938 "/></g></g></g><g fill="#3b3b3b" fill-opacity="1"><g transform="translate(154.081632, 109.563039)"><g><path d="M 3.285156 -2.648438 C 2.953125 -2.648438 2.660156 -2.488281 2.480469 -2.238281 C 2.328125 -2.496094 2.058594 -2.648438 1.726562 -2.648438 C 1.421875 -2.648438 1.136719 -2.5 0.957031 -2.269531 L 0.824219 -2.59375 L 0.335938 -2.59375 L 0.335938 0 L 1.035156 0 L 1.035156 -1.402344 C 1.035156 -1.804688 1.222656 -2.035156 1.539062 -2.035156 C 1.789062 -2.035156 1.925781 -1.851562 1.925781 -1.507812 L 1.925781 0 L 2.605469 0 L 2.605469 -1.402344 C 2.605469 -1.804688 2.792969 -2.035156 3.105469 -2.035156 C 3.359375 -2.035156 3.496094 -1.851562 3.496094 -1.507812 L 3.496094 0 L 4.195312 0 L 4.195312 -1.621094 C 4.195312 -2.230469 3.820312 -2.648438 3.285156 -2.648438 Z M 3.285156 -2.648438 "/></g></g></g><g fill="#3b3b3b" fill-opacity="1"><g transform="translate(158.584573, 109.563039)"><g><path d="M 2.851562 -1.300781 C 2.851562 -2.050781 2.304688 -2.664062 1.507812 -2.664062 C 0.738281 -2.664062 0.164062 -2.074219 0.164062 -1.296875 C 0.164062 -0.519531 0.742188 0.078125 1.507812 0.078125 C 2.113281 0.078125 2.605469 -0.285156 2.792969 -0.851562 L 2.058594 -0.851562 C 1.953125 -0.664062 1.753906 -0.546875 1.507812 -0.546875 C 1.167969 -0.546875 0.9375 -0.742188 0.875 -1.097656 L 2.835938 -1.097656 C 2.847656 -1.167969 2.851562 -1.234375 2.851562 -1.300781 Z M 1.507812 -2.0625 C 1.824219 -2.0625 2.050781 -1.890625 2.152344 -1.574219 L 0.894531 -1.574219 C 0.972656 -1.882812 1.195312 -2.0625 1.507812 -2.0625 Z M 1.507812 -2.0625 "/></g></g></g><g fill="#3b3b3b" fill-opacity="1"><g transform="translate(161.599334, 109.563039)"><g><path d="M 0.390625 -1.085938 L 1.097656 -1.085938 L 1.097656 -3.457031 L 0.390625 -3.457031 Z M 0.375 0 L 1.117188 0 L 1.117188 -0.75 L 0.375 -0.75 Z M 0.375 0 "/></g></g></g><g clip-path="url(#d97c6e524c)"><path fill="#163343" d="M 245.125 172.023438 C 240.5625 172.023438 191.148438 172.023438 191.148438 172.023438 C 188.9375 169.371094 188.054688 162.738281 189.378906 158.320312 C 190.703125 153.898438 193.804688 144.171875 194.683594 141.082031 C 195.5625 137.988281 198.664062 134.449219 201.757812 134.449219 C 204.851562 134.449219 215.46875 134.449219 215.46875 134.449219 C 219.925781 127.847656 224.691406 123.726562 235.273438 123.726562 C 245.851562 123.726562 251.507812 131.023438 252.234375 137.21875 C 252.964844 143.417969 253.695312 155.820312 253.875 162.566406 C 254.066406 169.316406 249.6875 172.023438 245.125 172.023438 Z M 156.992188 121.207031 C 144.957031 120.921875 137.609375 130.996094 137.609375 130.996094 C 137.609375 130.996094 122.511719 130.996094 118.230469 142.214844 C 118.09375 142.570312 117.960938 142.917969 117.828125 143.273438 C 113.328125 131.949219 103.875 130.859375 99.300781 130.859375 C 94.484375 130.859375 82.835938 130.859375 82.835938 130.859375 C 82.835938 130.859375 80.492188 120.417969 69.785156 120.417969 C 59.074219 120.417969 56.800781 127.378906 52.917969 137.007812 C 49.039062 146.640625 38.0625 171.125 54.257812 171.125 C 70.453125 171.125 92.273438 171.125 104.1875 171.125 C 107.53125 171.125 110.453125 170.113281 112.835938 168.367188 C 113.171875 169.488281 113.664062 170.496094 114.355469 171.371094 L 174.339844 171.371094 C 174.339844 171.371094 181.890625 165.457031 178.625 150.773438 C 175.355469 136.09375 174.128906 121.617188 156.992188 121.207031 Z M 76.261719 84.261719 L 95.527344 86.117188 C 95.527344 86.117188 99.105469 84.332031 99.585938 81.300781 C 100.070312 78.277344 98.207031 76.695312 98.207031 76.695312 C 99.308594 72.839844 96.421875 70.300781 96.421875 70.300781 C 97.382812 66.175781 95.253906 62.390625 91.671875 61.152344 C 88.09375 59.914062 85.824219 62.046875 85.824219 62.046875 C 81.078125 61.769531 79.835938 67.546875 79.835938 67.546875 C 79.835938 67.546875 76.398438 68.234375 76.191406 70.917969 C 75.984375 73.601562 77.289062 75.457031 77.289062 75.457031 C 72.546875 78.894531 76.261719 84.261719 76.261719 84.261719 Z M 76.261719 84.261719 " fill-opacity="1" fill-rule="nonzero"/></g><g clip-path="url(#1b6eea3cd7)"><path fill="#1a2d3a" d="M 95.355469 118.722656 L 97.5 113.859375 L 101.34375 116.699219 C 101.34375 116.699219 100.925781 94.746094 100.925781 92.238281 C 100.925781 89.734375 99.585938 85.480469 97 84.390625 C 94.410156 83.308594 90.488281 82.140625 90.488281 82.140625 L 89.066406 87.980469 L 84.386719 80.96875 C 79.042969 80.550781 74.28125 83.640625 73.363281 86.648438 C 72.445312 89.652344 69.101562 103.757812 68.769531 107.015625 C 68.4375 110.273438 69.933594 111.40625 69.933594 111.40625 C 69.933594 111.40625 79.367188 112.875 81.535156 113.820312 C 83.695312 114.765625 94.824219 119.625 94.824219 119.625 Z M 89.238281 108.074219 C 89.238281 108.074219 91.066406 107.800781 92.347656 104.828125 L 93.160156 110.976562 Z M 112.894531 156.816406 C 112.1875 161.484375 112.53125 165.75 112.898438 168.320312 C 110.507812 170.09375 107.5625 171.132812 104.1875 171.132812 C 99.550781 171.132812 93.410156 171.132812 86.683594 171.132812 L 91.128906 165.933594 L 93.980469 152.949219 L 110.84375 136.550781 L 112.871094 135.75 C 114.746094 137.503906 116.449219 139.871094 117.753906 143.078125 C 116.613281 145.175781 113.796875 150.855469 112.894531 156.816406 Z M 178.617188 150.773438 C 181.878906 165.457031 174.332031 171.371094 174.332031 171.371094 L 135.042969 171.371094 C 158.652344 164.394531 171.996094 147.347656 176.4375 140.71875 C 177.207031 143.945312 177.859375 147.351562 178.617188 150.773438 Z M 245.125 172.023438 C 242.550781 172.023438 225.640625 172.023438 211.421875 172.023438 C 217.519531 170.320312 234.007812 165.09375 240.617188 156.800781 C 247.902344 147.660156 250.492188 143.894531 251.464844 134.082031 C 251.855469 135.132812 252.117188 136.191406 252.234375 137.21875 C 252.964844 143.417969 253.695312 155.820312 253.875 162.566406 C 254.066406 169.316406 249.6875 172.023438 245.125 172.023438 Z M 245.125 172.023438 " fill-opacity="1" fill-rule="nonzero"/></g><path fill="#ffffff" d="M 168.128906 90.867188 C 167.484375 98.789062 165.621094 120.84375 165.4375 123.011719 C 163.152344 121.933594 160.390625 121.289062 156.992188 121.210938 C 144.957031 120.925781 137.609375 131 137.609375 131 C 137.609375 131 137.320312 131 136.820312 131.03125 C 132.339844 129.472656 131.242188 127.53125 129.378906 122.964844 C 127.125 117.445312 125.816406 102.597656 125.816406 102.597656 C 125.816406 102.597656 126.675781 97.742188 127.914062 92.789062 C 129.152344 87.835938 131.40625 77.585938 137.265625 76.460938 C 142.90625 75.378906 142.804688 75.855469 142.785156 75.894531 C 142.796875 75.871094 144.148438 72.746094 146.953125 72.523438 C 149.765625 72.296875 154.089844 74.59375 154.089844 74.59375 C 154.089844 74.59375 157.652344 75.222656 160.808594 76.238281 C 163.957031 77.242188 168.800781 82.535156 168.128906 90.867188 Z M 231.199219 114.410156 C 227.328125 114.238281 212.09375 116.132812 212.09375 116.132812 C 212.09375 116.132812 194.46875 118.851562 190.097656 119.507812 C 185.734375 120.167969 181.367188 123.871094 181.535156 128.890625 C 181.699219 133.914062 188.121094 157.292969 188.121094 157.292969 L 189.933594 156.632812 C 189.933594 156.632812 192.820312 147.085938 193.972656 143.296875 C 195.125 139.507812 196.609375 137.785156 196.609375 137.785156 L 196.199219 134.574219 L 215.472656 134.449219 C 215.472656 134.449219 220.742188 125.101562 232.769531 123.871094 C 233.425781 120.332031 232.753906 116.226562 231.199219 114.410156 Z M 87.800781 163.085938 C 87.652344 163.710938 87.5625 164.214844 87.5625 164.539062 C 87.5625 165.925781 93.882812 169.535156 94.925781 170.160156 C 95.964844 170.785156 98.304688 171.539062 99.554688 171.195312 C 100.671875 170.886719 98.871094 169.136719 97.976562 167.976562 C 93.851562 167.792969 89.515625 164.519531 87.800781 163.085938 Z M 87.800781 163.085938 " fill-opacity="1" fill-rule="nonzero"/><g clip-path="url(#092c99395d)"><path fill="#ebdab6" d="M 211.300781 97.269531 L 206.070312 105.121094 C 206.070312 105.121094 205.078125 106.742188 203.953125 108.308594 C 202.824219 109.875 200.410156 111.570312 197.476562 111.53125 C 194.542969 111.492188 191.96875 109.921875 190.480469 106.988281 C 188.988281 104.054688 183.804688 93.121094 183.804688 93.121094 C 183.804688 93.121094 180.308594 92.515625 179.546875 92.316406 C 178.78125 92.113281 175.445312 89.828125 174.679688 89.300781 C 173.917969 88.78125 173.878906 87.894531 174.800781 88.097656 C 175.726562 88.300781 177.941406 89.0625 177.941406 89.0625 C 177.941406 88.542969 178.5 88.019531 180.671875 88.058594 C 182.84375 88.097656 183.933594 87.984375 185.824219 89.773438 C 187.722656 91.558594 197.191406 102.394531 197.191406 102.394531 L 201.597656 93.53125 Z M 193.898438 78.070312 C 193.898438 78.070312 194.34375 79.429688 195.160156 80.589844 L 197.8125 83.820312 L 200.363281 84.671875 L 204.71875 84.707031 L 207.679688 84.433594 L 211.085938 79.601562 C 211.085938 79.601562 212.789062 69.496094 204.007812 66.773438 C 195.222656 64.054688 192.804688 72.386719 192.804688 72.386719 L 193.078125 74.734375 C 193.078125 74.734375 191.921875 75.453125 192.261719 76.609375 C 192.609375 77.765625 193.898438 78.070312 193.898438 78.070312 Z M 127.476562 114.074219 C 131.914062 115.207031 135.851562 108.214844 135.851562 108.214844 C 131.304688 107.019531 125.863281 102.628906 125.863281 102.628906 C 123.234375 109.683594 123.707031 113.113281 127.476562 114.074219 Z M 157.125 63.792969 C 157.125 63.792969 157.125 57.03125 153.890625 55.339844 C 150.660156 53.652344 143.296875 54.046875 142.105469 59.570312 C 140.90625 65.089844 150.757812 73.242188 150.757812 73.242188 L 154.089844 74.585938 L 153.246094 71.5 C 153.246094 71.5 156.828125 71.148438 157.027344 66.128906 L 157.433594 66.128906 C 157.78125 66.128906 158.011719 65.769531 157.867188 65.453125 Z M 189.941406 156.636719 L 188.125 157.296875 L 188.898438 160.378906 Z M 188.734375 163.753906 C 188.734375 163.753906 185.574219 167.671875 183.835938 169.414062 C 182.09375 171.15625 183.398438 172.351562 184.707031 172.082031 C 186.015625 171.808594 190.480469 170.992188 190.480469 170.992188 C 190.480469 170.992188 189.554688 168.976562 189.171875 167.019531 C 188.789062 165.058594 188.734375 163.753906 188.734375 163.753906 Z M 84.386719 80.96875 L 89.0625 87.980469 L 90.480469 82.140625 L 91.132812 79.328125 C 91.132812 79.328125 94.089844 79.457031 94.960938 78.195312 C 95.835938 76.9375 96.421875 74.085938 96.617188 71.242188 C 96.808594 68.398438 96.398438 66.804688 96.398438 66.804688 C 96.398438 66.804688 91.355469 66.761719 89.441406 64.9375 C 89.441406 64.9375 89.527344 70.332031 86.007812 71.199219 L 85.613281 70.324219 C 85.613281 70.324219 83.789062 70.5 83.609375 72.109375 C 83.4375 73.71875 85.570312 74.542969 85.570312 74.542969 C 85.570312 74.542969 87.640625 78.703125 84.386719 80.96875 Z M 113.113281 124.433594 L 112.625 122.425781 C 112.625 122.425781 113.390625 120.269531 112.695312 119.164062 C 112 118.054688 110.542969 117.078125 109.015625 116.664062 C 107.488281 116.25 103.601562 117.222656 102.492188 117.152344 C 101.382812 117.082031 101.339844 116.703125 101.339844 116.703125 L 97.496094 113.863281 L 95.308594 118.761719 L 97.359375 119.730469 L 92.6875 131.105469 L 99.226562 131.105469 C 99.226562 131.105469 92.28125 149.769531 90.683594 154.210938 C 89.464844 157.609375 88.285156 161.042969 87.796875 163.09375 C 89.511719 164.53125 93.847656 167.796875 97.972656 167.984375 C 97.867188 167.847656 97.773438 167.71875 97.699219 167.601562 C 97.003906 166.492188 95.269531 163.851562 95.199219 163.09375 C 95.132812 162.328125 99.089844 155.597656 99.089844 155.597656 C 99.089844 155.597656 107.421875 146.507812 111.308594 142.207031 C 115.199219 137.90625 116.101562 135.269531 116.863281 132.769531 C 117.625 130.261719 117.832031 125.265625 113.113281 124.433594 Z M 113.113281 124.433594 " fill-opacity="1" fill-rule="nonzero"/></g><g clip-path="url(#e0e108ada1)"><path fill="#3b3b3b" d="M 156.433594 57.234375 C 155.914062 58.804688 154.078125 62.996094 154.078125 62.996094 L 152.636719 61.097656 C 152.636719 61.097656 150.082031 61.882812 150.472656 64.304688 C 150.867188 66.722656 153.878906 66.59375 153.878906 66.59375 C 153.878906 66.59375 154.472656 68.164062 153.816406 69.867188 C 153.160156 71.570312 151.128906 71.765625 151.128906 71.765625 C 151.128906 71.765625 151.457031 73.992188 149.230469 75.042969 C 147.003906 76.089844 145.105469 74.914062 145.105469 74.914062 C 145.105469 74.914062 142.941406 76.613281 140.78125 75.894531 C 138.621094 75.175781 139.148438 72.230469 139.148438 72.230469 C 139.148438 72.230469 136.398438 72.882812 135.21875 71.179688 C 134.039062 69.480469 134.761719 66.925781 134.761719 66.925781 C 134.761719 66.925781 132.796875 66.269531 132.535156 63.914062 C 132.269531 61.558594 134.367188 59.660156 134.367188 59.660156 C 134.367188 59.660156 133.0625 58.089844 134.171875 55.863281 C 135.285156 53.636719 138.296875 53.441406 138.296875 53.441406 C 138.296875 53.441406 138.167969 50.890625 140.132812 49.84375 C 142.09375 48.796875 145.699219 50.828125 145.699219 50.828125 C 145.699219 50.828125 147.664062 48.996094 150.347656 49.519531 C 153.035156 50.042969 153.625 52.335938 153.625 52.335938 C 156.898438 52.523438 156.960938 55.664062 156.433594 57.234375 Z M 130.269531 113.851562 C 130.269531 113.851562 126.992188 114.734375 125.21875 112.875 C 125.21875 112.875 121.050781 113.496094 120.257812 117.480469 C 119.460938 121.464844 119.636719 139.175781 119.636719 139.175781 C 119.636719 139.175781 124.929688 131.664062 137.609375 130.992188 C 138.332031 130.234375 138.332031 130.234375 138.332031 130.234375 C 138.332031 130.234375 129.828125 125.808594 130.269531 113.851562 Z M 231.070312 105.980469 C 229.527344 102.375 221.363281 86.488281 217.15625 81.765625 C 216.0625 80.535156 214.835938 79.851562 213.597656 79.554688 C 213.632812 79.511719 213.65625 79.484375 213.65625 79.484375 C 213.65625 79.484375 214.863281 74.84375 212.355469 69.648438 C 209.847656 64.449219 203.441406 61.941406 198.054688 63.800781 C 192.667969 65.664062 191.277344 70.578125 192.480469 73.640625 C 192.480469 73.640625 198.242188 71.785156 199.726562 69.738281 C 199.726562 69.738281 200.378906 74.011719 204 74.285156 L 203.902344 71.964844 C 203.902344 71.964844 206.316406 71.410156 206.6875 73.636719 C 207.058594 75.863281 204.550781 76.882812 204.550781 76.882812 C 204.550781 76.882812 202.152344 80.828125 205.351562 82.699219 C 205.238281 82.84375 205.132812 82.988281 205.042969 83.132812 C 204.792969 83.527344 204.558594 83.882812 204.347656 84.21875 C 203.9375 83.773438 203.183594 82.976562 202.277344 82.113281 C 197.195312 83.761719 195.132812 80.464844 195.132812 80.464844 C 195.132812 80.464844 194.132812 82.824219 197.121094 84.71875 C 199.261719 86.074219 202.507812 85.292969 203.945312 84.835938 C 202.867188 86.539062 202.226562 87.699219 201.429688 90.082031 C 200.398438 93.175781 201.601562 93.515625 201.601562 93.515625 L 210.394531 97.738281 L 206.070312 105.109375 C 206.070312 105.109375 206.84375 110.777344 207.875 113.011719 C 208.90625 115.242188 211.910156 116.101562 211.910156 116.101562 L 231.191406 114.398438 C 231.199219 114.410156 232.621094 109.589844 231.070312 105.980469 Z M 199.269531 74.726562 C 199.269531 74.488281 199.078125 74.300781 198.839844 74.300781 C 198.601562 74.300781 198.414062 74.488281 198.414062 74.726562 C 198.414062 74.964844 198.601562 75.152344 198.839844 75.152344 C 199.078125 75.152344 199.269531 74.964844 199.269531 74.726562 Z M 194.402344 75.234375 C 194.164062 75.234375 193.976562 75.425781 193.976562 75.664062 C 193.976562 75.902344 194.164062 76.089844 194.402344 76.089844 C 194.640625 76.089844 194.832031 75.902344 194.832031 75.664062 C 194.832031 75.425781 194.640625 75.234375 194.402344 75.234375 Z M 199.898438 72.960938 C 198.085938 72.035156 197.066406 73.335938 197.058594 73.351562 C 196.984375 73.449219 197 73.589844 197.101562 73.660156 C 197.140625 73.691406 197.1875 73.703125 197.234375 73.703125 C 197.300781 73.703125 197.367188 73.675781 197.410156 73.617188 C 197.441406 73.574219 198.214844 72.59375 199.699219 73.355469 C 199.808594 73.410156 199.941406 73.367188 199.996094 73.261719 C 200.054688 73.152344 200.011719 73.019531 199.898438 72.960938 Z M 195.574219 74.359375 C 195.671875 74.429688 195.808594 74.398438 195.878906 74.300781 C 195.949219 74.195312 195.917969 74.0625 195.820312 73.992188 C 194.417969 73.058594 193.519531 74.058594 193.507812 74.070312 C 193.425781 74.160156 193.441406 74.300781 193.53125 74.382812 C 193.574219 74.421875 193.625 74.4375 193.679688 74.4375 C 193.738281 74.4375 193.796875 74.410156 193.84375 74.363281 C 193.867188 74.328125 194.5 73.648438 195.574219 74.359375 Z M 196.203125 75.289062 C 196.089844 75.277344 195.972656 75.371094 195.964844 75.492188 C 195.960938 75.535156 195.886719 76.570312 195.886719 77.105469 C 195.886719 77.273438 195.953125 77.417969 196.078125 77.527344 C 196.292969 77.71875 196.652344 77.753906 196.890625 77.753906 C 197.011719 77.753906 197.101562 77.746094 197.125 77.742188 C 197.246094 77.730469 197.335938 77.617188 197.320312 77.496094 C 197.308594 77.375 197.195312 77.285156 197.074219 77.300781 C 196.867188 77.328125 196.496094 77.3125 196.371094 77.195312 C 196.339844 77.167969 196.332031 77.144531 196.332031 77.101562 C 196.332031 76.582031 196.40625 75.523438 196.410156 75.515625 C 196.417969 75.40625 196.324219 75.296875 196.203125 75.289062 Z M 198.890625 79.425781 C 198.804688 79.511719 198.800781 79.648438 198.882812 79.734375 C 198.925781 79.785156 198.988281 79.804688 199.042969 79.804688 C 199.097656 79.804688 199.152344 79.785156 199.195312 79.746094 C 199.34375 79.601562 200.097656 78.859375 200.140625 78.347656 C 200.164062 78.035156 200.039062 77.769531 199.8125 77.648438 C 199.65625 77.566406 199.328125 77.484375 198.867188 77.855469 C 198.335938 78.277344 197.386719 78.574219 197.378906 78.574219 C 197.261719 78.609375 197.195312 78.734375 197.230469 78.851562 C 197.265625 78.96875 197.390625 79.03125 197.507812 79 C 197.550781 78.984375 198.542969 78.675781 199.144531 78.199219 C 199.367188 78.019531 199.527344 78 199.601562 78.039062 C 199.667969 78.078125 199.707031 78.183594 199.695312 78.3125 C 199.679688 78.566406 199.214844 79.113281 198.890625 79.425781 Z M 184.847656 168.339844 C 184.484375 168.742188 184.132812 169.113281 183.832031 169.414062 C 182.089844 171.15625 183.394531 172.351562 184.703125 172.082031 C 186.011719 171.808594 190.476562 170.992188 190.476562 170.992188 C 190.476562 170.992188 189.941406 169.824219 189.511719 168.402344 Z M 91.695312 71.460938 C 91.695312 71.246094 91.523438 71.074219 91.308594 71.074219 C 91.089844 71.074219 90.917969 71.246094 90.917969 71.460938 C 90.917969 71.675781 91.089844 71.847656 91.308594 71.847656 C 91.523438 71.851562 91.695312 71.675781 91.695312 71.460938 Z M 96.019531 71.667969 C 96.019531 71.453125 95.847656 71.28125 95.632812 71.28125 C 95.417969 71.28125 95.242188 71.453125 95.242188 71.667969 C 95.242188 71.882812 95.417969 72.054688 95.632812 72.054688 C 95.847656 72.054688 96.019531 71.882812 96.019531 71.667969 Z M 94.445312 69.964844 C 94.457031 69.960938 95.542969 69.351562 96.234375 70.046875 C 96.28125 70.089844 96.335938 70.109375 96.390625 70.109375 C 96.449219 70.109375 96.503906 70.089844 96.546875 70.046875 C 96.632812 69.960938 96.632812 69.820312 96.546875 69.734375 C 95.613281 68.804688 94.277344 69.550781 94.21875 69.578125 C 94.113281 69.640625 94.078125 69.773438 94.136719 69.882812 C 94.203125 69.984375 94.339844 70.023438 94.445312 69.964844 Z M 89.765625 69.90625 C 89.777344 69.898438 91.164062 69.175781 92.035156 70.046875 C 92.078125 70.089844 92.136719 70.109375 92.191406 70.109375 C 92.246094 70.109375 92.304688 70.089844 92.347656 70.046875 C 92.433594 69.960938 92.433594 69.820312 92.347656 69.734375 C 91.242188 68.628906 89.625 69.484375 89.554688 69.519531 C 89.445312 69.574219 89.40625 69.710938 89.464844 69.816406 C 89.523438 69.925781 89.65625 69.964844 89.765625 69.90625 Z M 93.480469 73.902344 C 93.488281 73.902344 93.492188 73.902344 93.496094 73.902344 C 93.613281 73.894531 94.214844 73.84375 94.476562 73.519531 C 94.574219 73.394531 94.609375 73.242188 94.582031 73.085938 C 94.492188 72.570312 94.226562 71.949219 94.214844 71.921875 C 94.167969 71.808594 94.035156 71.757812 93.925781 71.804688 C 93.816406 71.851562 93.761719 71.984375 93.808594 72.09375 C 93.816406 72.097656 94.066406 72.695312 94.148438 73.164062 C 94.152344 73.199219 94.148438 73.222656 94.128906 73.246094 C 94.03125 73.375 93.683594 73.449219 93.46875 73.46875 C 93.347656 73.476562 93.253906 73.578125 93.261719 73.699219 C 93.269531 73.8125 93.367188 73.902344 93.480469 73.902344 Z M 91.707031 74.53125 C 91.625 74.441406 91.488281 74.433594 91.398438 74.515625 C 91.308594 74.597656 91.296875 74.734375 91.378906 74.828125 C 91.410156 74.859375 92.050781 75.558594 93.035156 75.558594 C 93.171875 75.558594 93.316406 75.546875 93.472656 75.511719 C 93.59375 75.484375 93.667969 75.371094 93.644531 75.25 C 93.621094 75.128906 93.503906 75.054688 93.382812 75.078125 C 92.40625 75.292969 91.734375 74.566406 91.707031 74.53125 Z M 84.65625 72.984375 C 84.679688 72.984375 84.707031 72.980469 84.734375 72.972656 C 84.847656 72.929688 84.90625 72.800781 84.867188 72.6875 C 84.621094 72.003906 85.125 71.539062 85.148438 71.515625 C 85.238281 71.433594 85.246094 71.296875 85.164062 71.207031 C 85.082031 71.117188 84.945312 71.105469 84.851562 71.183594 C 84.824219 71.210938 84.097656 71.867188 84.449219 72.835938 C 84.476562 72.929688 84.5625 72.984375 84.65625 72.984375 Z M 90.679688 81.289062 L 91.136719 79.328125 C 89.617188 79.292969 89.054688 79.535156 89.09375 79.898438 C 89.113281 80.097656 89.941406 80.75 90.679688 81.289062 Z M 85.742188 105.871094 C 85.753906 105.925781 85.785156 105.972656 85.832031 106.003906 L 88.699219 108.011719 C 88.738281 108.039062 88.78125 108.050781 88.824219 108.050781 C 88.894531 108.050781 88.960938 108.019531 89.007812 107.957031 C 89.074219 107.859375 89.054688 107.71875 88.949219 107.652344 L 86.152344 105.6875 L 82.636719 89.433594 C 82.609375 89.3125 82.492188 89.242188 82.371094 89.265625 C 82.25 89.292969 82.175781 89.410156 82.203125 89.53125 Z M 92.550781 104.484375 C 92.589844 104.507812 92.628906 104.519531 92.667969 104.519531 C 92.738281 104.519531 92.8125 104.480469 92.851562 104.414062 C 95.238281 100.632812 95.953125 97.164062 96.125 94.917969 C 96.3125 92.480469 95.941406 90.957031 95.925781 90.894531 C 95.894531 90.773438 95.777344 90.703125 95.65625 90.734375 C 95.542969 90.765625 95.46875 90.886719 95.5 91 C 95.515625 91.0625 96.941406 97.097656 92.476562 104.183594 C 92.417969 104.28125 92.445312 104.417969 92.550781 104.484375 Z M 76.359375 105.898438 C 77.390625 108.636719 78.746094 110.734375 78.757812 110.757812 C 78.800781 110.824219 78.871094 110.855469 78.945312 110.855469 C 78.988281 110.855469 79.027344 110.84375 79.066406 110.824219 C 79.167969 110.757812 79.199219 110.621094 79.128906 110.515625 C 79.117188 110.496094 77.789062 108.429688 76.773438 105.738281 C 75.960938 103.585938 73.507812 94.933594 73.484375 94.84375 C 73.449219 94.730469 73.328125 94.660156 73.210938 94.695312 C 73.09375 94.730469 73.027344 94.851562 73.0625 94.964844 C 73.085938 95.058594 75.539062 103.730469 76.359375 105.898438 Z M 92.382812 117.96875 C 92.417969 117.984375 92.449219 117.992188 92.484375 117.992188 C 92.5625 117.992188 92.640625 117.949219 92.679688 117.875 L 95.28125 112.992188 C 95.339844 112.882812 95.300781 112.75 95.191406 112.695312 C 95.082031 112.640625 94.949219 112.675781 94.894531 112.785156 L 92.289062 117.667969 C 92.234375 117.777344 92.273438 117.910156 92.382812 117.96875 Z M 93.535156 111.246094 C 93.46875 111.347656 93.5 111.488281 93.601562 111.550781 L 96.84375 113.582031 C 96.878906 113.605469 96.921875 113.617188 96.960938 113.617188 C 97.035156 113.617188 97.109375 113.578125 97.148438 113.515625 C 97.210938 113.410156 97.179688 113.273438 97.078125 113.207031 L 93.835938 111.175781 C 93.738281 111.105469 93.597656 111.140625 93.535156 111.246094 Z M 195.390625 131.664062 C 195.269531 131.6875 195.1875 131.800781 195.210938 131.921875 L 195.515625 133.765625 C 195.535156 133.875 195.628906 133.953125 195.734375 133.953125 C 195.746094 133.953125 195.757812 133.953125 195.769531 133.949219 C 195.890625 133.925781 195.972656 133.816406 195.953125 133.695312 L 195.644531 131.847656 C 195.625 131.726562 195.511719 131.644531 195.390625 131.664062 Z M 142.257812 91.167969 C 142.148438 91.125 142.015625 91.183594 141.972656 91.300781 L 135.644531 108.132812 C 135.601562 108.25 135.660156 108.375 135.777344 108.417969 C 135.800781 108.429688 135.828125 108.433594 135.851562 108.433594 C 135.945312 108.433594 136.027344 108.375 136.0625 108.289062 L 142.390625 91.453125 C 142.433594 91.34375 142.375 91.210938 142.257812 91.167969 Z M 113.015625 124.875 C 112.894531 124.882812 112.796875 124.988281 112.808594 125.109375 C 112.808594 125.140625 112.984375 128.5 111.160156 132.277344 C 109.3125 136.105469 99.765625 153.863281 99.667969 154.046875 C 99.613281 154.152344 99.652344 154.285156 99.757812 154.34375 C 99.792969 154.359375 99.828125 154.367188 99.863281 154.367188 C 99.941406 154.367188 100.015625 154.324219 100.054688 154.253906 C 100.152344 154.074219 109.703125 136.304688 111.554688 132.46875 C 113.429688 128.585938 113.257812 125.21875 113.246094 125.078125 C 113.238281 124.960938 113.136719 124.863281 113.015625 124.875 Z M 102.96875 122.453125 C 103.394531 122.582031 103.871094 122.640625 104.371094 122.640625 C 105.5 122.640625 106.730469 122.363281 107.628906 122.058594 C 108.726562 121.675781 111.050781 121.289062 111.628906 121.195312 L 112.195312 121.980469 C 112.261719 122.078125 112.402344 122.101562 112.503906 122.03125 C 112.605469 121.957031 112.625 121.820312 112.558594 121.722656 L 111.910156 120.828125 C 111.863281 120.757812 111.78125 120.722656 111.699219 120.738281 C 111.582031 120.753906 108.78125 121.191406 107.484375 121.640625 C 106.160156 122.101562 104.285156 122.398438 103.097656 122.035156 C 101.953125 121.683594 97.980469 119.988281 97.234375 119.664062 L 95.355469 118.722656 L 94.824219 119.621094 C 94.824219 119.621094 85.25 115.179688 82.871094 114.175781 C 80.492188 113.167969 79.382812 111.402344 79.382812 111.402344 L 69.933594 111.402344 C 69.933594 111.402344 66.078125 116.277344 66.28125 121.753906 C 66.480469 127.238281 69.835938 131.097656 73.085938 131.097656 C 76.335938 131.097656 92.691406 131.097656 92.691406 131.097656 L 97.199219 120.125 C 98.222656 120.566406 101.84375 122.109375 102.96875 122.453125 Z M 108.851562 119.097656 C 108.734375 119.121094 108.65625 119.234375 108.675781 119.355469 C 108.699219 119.464844 108.789062 119.539062 108.890625 119.539062 C 108.90625 119.539062 108.917969 119.539062 108.933594 119.535156 C 109.917969 119.347656 111.664062 119.175781 112.152344 119.5 C 112.253906 119.566406 112.390625 119.539062 112.457031 119.4375 C 112.527344 119.335938 112.496094 119.199219 112.398438 119.132812 C 111.597656 118.597656 109.132812 119.046875 108.851562 119.097656 Z M 107.613281 117.855469 C 107.492188 117.875 107.417969 117.992188 107.4375 118.113281 C 107.460938 118.222656 107.550781 118.296875 107.652344 118.296875 C 107.667969 118.296875 107.679688 118.296875 107.695312 118.289062 C 108.679688 118.105469 110.425781 117.933594 110.914062 118.257812 C 111.015625 118.324219 111.148438 118.296875 111.21875 118.195312 C 111.289062 118.09375 111.257812 117.957031 111.160156 117.890625 C 110.355469 117.359375 107.890625 117.804688 107.613281 117.855469 Z M 106.210938 117.351562 C 106.226562 117.351562 106.238281 117.351562 106.253906 117.347656 C 107.238281 117.160156 108.984375 116.988281 109.472656 117.3125 C 109.570312 117.378906 109.707031 117.351562 109.777344 117.25 C 109.847656 117.148438 109.816406 117.015625 109.714844 116.945312 C 108.917969 116.414062 106.453125 116.859375 106.171875 116.910156 C 106.050781 116.933594 105.972656 117.046875 105.996094 117.167969 C 106.015625 117.277344 106.109375 117.351562 106.210938 117.351562 Z M 102.757812 126.800781 C 102.859375 126.730469 102.886719 126.59375 102.820312 126.492188 C 102.75 126.390625 102.613281 126.363281 102.511719 126.433594 C 102.429688 126.488281 100.507812 127.785156 99.253906 130.496094 C 99.203125 130.609375 99.25 130.738281 99.363281 130.789062 C 99.390625 130.804688 99.421875 130.8125 99.453125 130.8125 C 99.535156 130.8125 99.617188 130.765625 99.65625 130.683594 C 100.855469 128.089844 102.742188 126.8125 102.757812 126.800781 Z M 182.300781 90.476562 L 178.582031 89.175781 C 178.464844 89.136719 178.339844 89.199219 178.300781 89.308594 C 178.261719 89.425781 178.324219 89.550781 178.4375 89.589844 L 182.152344 90.890625 C 182.179688 90.898438 182.199219 90.902344 182.226562 90.902344 C 182.316406 90.902344 182.402344 90.847656 182.433594 90.753906 C 182.476562 90.644531 182.417969 90.519531 182.300781 90.476562 Z M 197.523438 102.660156 C 197.429688 102.585938 197.289062 102.597656 197.214844 102.695312 C 197.136719 102.789062 197.152344 102.925781 197.246094 103.003906 L 197.839844 103.476562 C 197.882812 103.507812 197.929688 103.523438 197.976562 103.523438 C 198.042969 103.523438 198.105469 103.492188 198.148438 103.441406 C 198.226562 103.34375 198.210938 103.207031 198.117188 103.128906 Z M 200.6875 56.917969 L 190.488281 56.707031 C 189.882812 56.691406 189.265625 56.945312 188.84375 57.410156 C 188.425781 57.871094 188.222656 58.488281 188.289062 59.109375 L 188.933594 64.832031 C 188.945312 64.933594 188.886719 65.027344 188.792969 65.066406 C 188.765625 65.074219 188.738281 65.078125 188.714844 65.078125 C 188.644531 65.078125 188.574219 65.046875 188.53125 64.988281 L 183.476562 57.957031 C 183.09375 57.421875 182.5 57.09375 181.835938 57.058594 L 165.003906 56.132812 C 164.609375 56.109375 164.246094 55.9375 163.984375 55.640625 C 163.722656 55.347656 163.585938 54.964844 163.613281 54.574219 L 164.421875 40.363281 C 164.464844 39.597656 165.097656 38.984375 165.863281 38.96875 L 199.167969 38.25 C 199.925781 38.242188 200.597656 38.820312 200.671875 39.585938 L 202.191406 55.296875 C 202.230469 55.71875 202.089844 56.136719 201.800781 56.445312 C 201.515625 56.753906 201.117188 56.925781 200.6875 56.917969 Z M 190.5 56.265625 L 200.699219 56.476562 C 200.988281 56.480469 201.28125 56.359375 201.480469 56.144531 C 201.683594 55.929688 201.78125 55.636719 201.753906 55.339844 L 200.234375 39.628906 C 200.183594 39.101562 199.734375 38.691406 199.203125 38.691406 C 199.195312 38.691406 199.191406 38.691406 199.179688 38.691406 L 165.878906 39.40625 C 165.34375 39.421875 164.898438 39.847656 164.871094 40.382812 L 164.0625 54.59375 C 164.042969 54.871094 164.140625 55.140625 164.324219 55.339844 C 164.511719 55.550781 164.765625 55.667969 165.042969 55.6875 L 181.875 56.613281 C 182.667969 56.65625 183.386719 57.050781 183.847656 57.699219 L 188.410156 64.042969 L 187.863281 59.15625 C 187.78125 58.410156 188.023438 57.664062 188.527344 57.109375 C 189.027344 56.558594 189.734375 56.261719 190.5 56.265625 Z M 169.132812 43.324219 L 193.671875 43.441406 C 193.792969 43.441406 193.894531 43.34375 193.894531 43.222656 C 193.894531 43.101562 193.792969 43.003906 193.671875 43.003906 L 169.132812 42.886719 C 169.011719 42.886719 168.914062 42.984375 168.914062 43.105469 C 168.910156 43.226562 169.007812 43.324219 169.132812 43.324219 Z M 194.027344 46.601562 L 169.132812 46.308594 C 169.132812 46.308594 169.132812 46.308594 169.128906 46.308594 C 169.007812 46.308594 168.910156 46.40625 168.910156 46.527344 C 168.910156 46.648438 169.003906 46.746094 169.128906 46.75 L 194.023438 47.042969 C 194.023438 47.042969 194.023438 47.042969 194.027344 47.042969 C 194.148438 47.042969 194.246094 46.945312 194.246094 46.824219 C 194.246094 46.699219 194.148438 46.601562 194.027344 46.601562 Z M 193.851562 50.726562 L 168.902344 50.726562 C 168.78125 50.726562 168.679688 50.824219 168.679688 50.945312 C 168.679688 51.066406 168.78125 51.164062 168.902344 51.164062 L 193.851562 51.164062 C 193.972656 51.164062 194.070312 51.066406 194.070312 50.945312 C 194.070312 50.824219 193.972656 50.726562 193.851562 50.726562 Z M 193.851562 50.726562 " fill-opacity="1" fill-rule="nonzero"/></g></svg>